<svg xmlns:xlink="http://www.w3.org/1999/xlink" role="img" fill="currentColor" stroke="currentColor" width="770" height="107.70" viewBox="0 42 770.0 107.702" style=";" xmlns="http://www.w3.org/2000/svg"><style>.abcjs-dragging-in-progress text, .abcjs-dragging-in-progress tspan {-webkit-touch-callout: none; -webkit-user-select: none; -khtml-user-select: none; -moz-user-select: none; -ms-user-select: none; user-select: none;}</style><g><g><path d="M 15 84.2 L 247.1 84.2 L 247.1 84.9 L 15 84.9 z" stroke="none" fill="currentColor" class="abcjs-top-line"></path><path d="M 15 91.95 L 247.1 91.95 L 247.1 92.65 L 15 92.65 z" stroke="none" fill="currentColor"></path><path d="M 15 99.7 L 247.1 99.7 L 247.1 100.4 L 15 100.4 z" stroke="none" fill="currentColor"></path><path d="M 15 107.45 L 247.1 107.45 L 247.1 108.15 L 15 108.15 z" stroke="none" fill="currentColor"></path><path d="M 15 115.2 L 247.1 115.2 L 247.1 115.9 L 15 115.9 z" stroke="none" fill="currentColor"></path></g><g class="" fill="currentColor" stroke="none" data-name="staff-extra clef"><path data-name="clefs.G" d="M 29.689999999999998 70.39200000000001c 0.09 -0.09 0.24 -0.06 0.36 0c 0.12 0.09 0.57 0.6 0.96 1.11c 1.77 2.34 3.21 5.85 3.57 8.73c 0.21 1.56 0.03 3.27 -0.45 4.86c -0.69 2.31 -1.92 4.47 -4.23 7.44c -0.3 0.39 -0.57 0.72 -0.6 0.75c -0.03 0.06 0 0.15 0.18 0.78c 0.54 1.68 1.38 4.44 1.68 5.49l 0.09 0.42l 0.39 0c 1.47 0.09 2.76 0.51 3.96 1.29c 1.83 1.23 3.06 3.21 3.39 5.52c 0.09 0.45 0.12 1.29 0.06 1.74c -0.09 1.02 -0.33 1.83 -0.75 2.73c -0.84 1.71 -2.28 3.06 -4.02 3.72l -0.33 0.12l 0.03 1.26c 0 1.74 -0.06 3.63 -0.21 4.62c -0.45 3.06 -2.19 5.49 -4.47 6.21c -0.57 0.18 -0.9 0.21 -1.59 0.21c -0.69 0 -1.02 -0.03 -1.65 -0.21c -1.14 -0.27 -2.13 -0.84 -2.94 -1.65c -0.99 -0.99 -1.56 -2.16 -1.71 -3.54c -0.09 -0.81 0.06 -1.53 0.45 -2.13c 0.63 -0.99 1.83 -1.56 3 -1.53c 1.5 0.09 2.64 1.32 2.73 2.94c 0.06 1.47 -0.93 2.7 -2.37 2.97c -0.45 0.06 -0.84 0.03 -1.29 -0.09l -0.21 -0.09l 0.09 0.12c 0.39 0.54 0.78 0.93 1.32 1.26c 1.35 0.87 3.06 1.02 4.35 0.36c 1.44 -0.72 2.52 -2.28 2.97 -4.35c 0.15 -0.66 0.24 -1.5 0.3 -3.03c 0.03 -0.84 0.03 -2.94 0 -3c -0.03 0 -0.18 0 -0.36 0.03c -0.66 0.12 -0.99 0.12 -1.83 0.12c -1.05 0 -1.71 -0.06 -2.61 -0.3c -4.02 -0.99 -7.11 -4.35 -7.8 -8.46c -0.12 -0.66 -0.12 -0.99 -0.12 -1.83c 0 -0.84 0 -1.14 0.15 -1.92c 0.36 -2.28 1.41 -4.62 3.3 -7.29l 2.79 -3.6c 0.54 -0.66 0.96 -1.2 0.96 -1.23c 0 -0.03 -0.09 -0.33 -0.18 -0.69c -0.96 -3.21 -1.41 -5.28 -1.59 -7.68c -0.12 -1.38 -0.15 -3.09 -0.06 -3.96c 0.33 -2.67 1.38 -5.07 3.12 -7.08c 0.36 -0.42 0.99 -1.05 1.17 -1.14zm 2.01 4.71c -0.15 -0.3 -0.3 -0.54 -0.3 -0.54c -0.03 0 -0.18 0.09 -0.3 0.21c -2.4 1.74 -3.87 4.2 -4.26 7.11c -0.06 0.54 -0.06 1.41 -0.03 1.89c 0.09 1.29 0.48 3.12 1.08 5.22c 0.15 0.42 0.24 0.78 0.24 0.81c 0 0.03 0.84 -1.11 1.23 -1.68c 1.89 -2.73 2.88 -5.07 3.15 -7.53c 0.09 -0.57 0.12 -1.74 0.06 -2.37c -0.09 -1.23 -0.27 -1.92 -0.87 -3.12zm -2.94 20.7c -0.21 -0.72 -0.39 -1.32 -0.42 -1.32c 0 0 -1.2 1.47 -1.86 2.37c -2.79 3.63 -4.02 6.3 -4.35 9.3c -0.03 0.21 -0.03 0.69 -0.03 1.08c 0 0.69 0 0.75 0.06 1.11c 0.12 0.54 0.27 0.99 0.51 1.47c 0.69 1.38 1.83 2.55 3.42 3.42c 0.96 0.54 2.07 0.9 3.21 1.08c 0.78 0.12 2.04 0.12 2.94 -0.03c 0.51 -0.06 0.45 -0.03 0.42 -0.3c -0.24 -3.33 -0.72 -6.33 -1.62 -10.08c -0.09 -0.39 -0.18 -0.75 -0.18 -0.78c -0.03 -0.03 -0.42 0 -0.81 0.09c -0.9 0.18 -1.65 0.57 -2.22 1.14c -0.72 0.72 -1.08 1.65 -1.05 2.64c 0.06 0.96 0.48 1.83 1.23 2.58c 0.36 0.36 0.72 0.63 1.17 0.9c 0.33 0.18 0.36 0.21 0.42 0.33c 0.18 0.42 -0.18 0.9 -0.6 0.87c -0.18 -0.03 -0.84 -0.36 -1.26 -0.63c -0.78 -0.51 -1.38 -1.11 -1.86 -1.83c -1.77 -2.7 -0.99 -6.42 1.71 -8.19c 0.3 -0.21 0.81 -0.48 1.17 -0.63c 0.3 -0.09 1.02 -0.3 1.14 -0.3c 0.06 0 0.09 0 0.09 -0.03c 0.03 -0.03 -0.51 -1.92 -1.23 -4.26zm 3.78 7.41c -0.18 -0.03 -0.36 -0.06 -0.39 -0.06c -0.03 0 0 0.21 0.18 1.02c 0.75 3.18 1.26 6.3 1.5 9.09c 0.06 0.72 0 0.69 0.51 0.42c 0.78 -0.36 1.44 -0.96 1.98 -1.77c 1.08 -1.62 1.2 -3.69 0.3 -5.55c -0.81 -1.62 -2.31 -2.79 -4.08 -3.15z"></path></g><g class="" fill="currentColor" stroke="none" data-name="staff-extra time-signature"><path data-name="4" d="M 57.691 85.11200000000001c 0.27 -0.09 0.42 -0.12 0.54 -0.03c 0.09 0.06 0.15 0.21 0.15 0.3c -0.03 0.06 -1.92 2.31 -4.23 5.04c -2.31 2.73 -4.23 4.98 -4.26 5.01c -0.03 0.06 0.12 0.06 2.55 0.06l 2.61 0l 0 -2.37c 0 -2.19 0.03 -2.37 0.06 -2.46c 0.03 -0.06 0.21 -0.18 0.57 -0.42c 1.08 -0.72 1.38 -1.08 1.86 -2.16c 0.12 -0.3 0.24 -0.54 0.27 -0.57c 0.12 -0.12 0.39 -0.06 0.45 0.12c 0.06 0.09 0.06 0.57 0.06 3.96l 0 3.9l 1.08 0c 1.05 0 1.11 0 1.2 0.06c 0.24 0.15 0.24 0.54 0 0.69c -0.09 0.06 -0.15 0.06 -1.2 0.06l -1.08 0l 0 0.33c 0 0.57 0.09 1.11 0.3 1.53c 0.36 0.75 0.93 1.17 1.68 1.26c 0.3 0.03 0.39 0.09 0.39 0.3c 0 0.15 -0.03 0.18 -0.09 0.24c -0.06 0.06 -0.09 0.06 -0.48 0.06c -0.42 0 -0.69 -0.03 -2.1 -0.24c -0.9 -0.15 -1.77 -0.15 -2.67 0c -1.41 0.21 -1.68 0.24 -2.1 0.24c -0.39 0 -0.42 0 -0.48 -0.06c -0.06 -0.06 -0.06 -0.09 -0.06 -0.24c 0 -0.21 0.06 -0.27 0.36 -0.3c 0.75 -0.09 1.32 -0.51 1.68 -1.26c 0.21 -0.42 0.3 -0.96 0.3 -1.53l 0 -0.33l -2.7 0c -2.91 0 -2.85 0 -3.09 -0.15c -0.18 -0.12 -0.3 -0.39 -0.27 -0.54c 0.03 -0.06 0.18 -0.24 0.33 -0.45c 0.75 -0.9 1.59 -2.07 2.13 -3.03c 0.33 -0.54 0.84 -1.62 1.05 -2.16c 0.57 -1.41 0.84 -2.64 0.9 -4.05c 0.03 -0.63 0.06 -0.72 0.24 -0.81l 0.12 -0.06l 0.45 0.12c 0.66 0.18 1.02 0.24 1.47 0.27c 0.6 0.03 1.23 -0.09 2.01 -0.33z"></path><path data-name="4" d="M 57.691 100.61200000000001c 0.27 -0.09 0.42 -0.12 0.54 -0.03c 0.09 0.06 0.15 0.21 0.15 0.3c -0.03 0.06 -1.92 2.31 -4.23 5.04c -2.31 2.73 -4.23 4.98 -4.26 5.01c -0.03 0.06 0.12 0.06 2.55 0.06l 2.61 0l 0 -2.37c 0 -2.19 0.03 -2.37 0.06 -2.46c 0.03 -0.06 0.21 -0.18 0.57 -0.42c 1.08 -0.72 1.38 -1.08 1.86 -2.16c 0.12 -0.3 0.24 -0.54 0.27 -0.57c 0.12 -0.12 0.39 -0.06 0.45 0.12c 0.06 0.09 0.06 0.57 0.06 3.96l 0 3.9l 1.08 0c 1.05 0 1.11 0 1.2 0.06c 0.24 0.15 0.24 0.54 0 0.69c -0.09 0.06 -0.15 0.06 -1.2 0.06l -1.08 0l 0 0.33c 0 0.57 0.09 1.11 0.3 1.53c 0.36 0.75 0.93 1.17 1.68 1.26c 0.3 0.03 0.39 0.09 0.39 0.3c 0 0.15 -0.03 0.18 -0.09 0.24c -0.06 0.06 -0.09 0.06 -0.48 0.06c -0.42 0 -0.69 -0.03 -2.1 -0.24c -0.9 -0.15 -1.77 -0.15 -2.67 0c -1.41 0.21 -1.68 0.24 -2.1 0.24c -0.39 0 -0.42 0 -0.48 -0.06c -0.06 -0.06 -0.06 -0.09 -0.06 -0.24c 0 -0.21 0.06 -0.27 0.36 -0.3c 0.75 -0.09 1.32 -0.51 1.68 -1.26c 0.21 -0.42 0.3 -0.96 0.3 -1.53l 0 -0.33l -2.7 0c -2.91 0 -2.85 0 -3.09 -0.15c -0.18 -0.12 -0.3 -0.39 -0.27 -0.54c 0.03 -0.06 0.18 -0.24 0.33 -0.45c 0.75 -0.9 1.59 -2.07 2.13 -3.03c 0.33 -0.54 0.84 -1.62 1.05 -2.16c 0.57 -1.41 0.84 -2.64 0.9 -4.05c 0.03 -0.63 0.06 -0.72 0.24 -0.81l 0.12 -0.06l 0.45 0.12c 0.66 0.18 1.02 0.24 1.47 0.27c 0.6 0.03 1.23 -0.09 2.01 -0.33z"></path></g><g class="" fill="currentColor" stroke="none" data-name="note" selectable="false" data-index="0"><path data-name="flags.u8th" d="M 94.01100000000001 99.927l 0 -3.75l 0.21 0l 0.21 0l 0 0.18c 0 0.3 0.06 0.84 0.12 1.23c 0.24 1.53 0.9 3.12 2.13 5.16l 0.99 1.59c 0.87 1.44 1.38 2.34 1.77 3.09c 0.81 1.68 1.2 3.06 1.26 4.53c 0.03 1.53 -0.21 3.27 -0.75 5.01c -0.21 0.69 -0.51 1.5 -0.6 1.59c -0.09 0.12 -0.27 0.21 -0.42 0.21c -0.15 0 -0.42 -0.12 -0.51 -0.21c -0.15 -0.18 -0.18 -0.42 -0.09 -0.66c 0.15 -0.33 0.45 -1.2 0.57 -1.62c 0.42 -1.38 0.6 -2.58 0.6 -3.9c 0 -0.66 0 -0.81 -0.06 -1.11c -0.39 -2.07 -1.8 -4.26 -4.59 -7.14l -0.42 -0.45l -0.21 0l -0.21 0l 0 -3.75z"></path><path data-name="accidentals.sharp" d="M 80.70100000000001 112.11200000000001c 0.21 -0.12 0.54 -0.03 0.66 0.24c 0.06 0.12 0.06 0.21 0.06 2.31c 0 1.23 0 2.22 0.03 2.22c 0 0 0.27 -0.12 0.6 -0.24c 0.69 -0.27 0.78 -0.3 0.96 -0.15c 0.21 0.15 0.21 0.18 0.21 1.38c 0 1.02 0 1.11 -0.06 1.2c -0.03 0.06 -0.09 0.12 -0.12 0.15c -0.06 0.03 -0.42 0.21 -0.84 0.36l -0.75 0.33l -0.03 2.43c 0 1.32 0 2.43 0.03 2.43c 0 0 0.27 -0.12 0.6 -0.24c 0.69 -0.27 0.78 -0.3 0.96 -0.15c 0.21 0.15 0.21 0.18 0.21 1.38c 0 1.02 0 1.11 -0.06 1.2c -0.03 0.06 -0.09 0.12 -0.12 0.15c -0.06 0.03 -0.42 0.21 -0.84 0.36l -0.75 0.33l -0.03 2.52c 0 2.28 -0.03 2.55 -0.06 2.64c -0.21 0.36 -0.72 0.36 -0.93 0c -0.03 -0.09 -0.06 -0.33 -0.06 -2.43l 0 -2.31l -1.29 0.51l -1.26 0.51l 0 2.43c 0 2.58 0 2.52 -0.15 2.67c -0.06 0.09 -0.27 0.18 -0.36 0.18c -0.12 0 -0.33 -0.09 -0.39 -0.18c -0.15 -0.15 -0.15 -0.09 -0.15 -2.43c 0 -1.23 0 -2.22 -0.03 -2.22c 0 0 -0.27 0.12 -0.6 0.24c -0.69 0.27 -0.78 0.3 -0.96 0.15c -0.21 -0.15 -0.21 -0.18 -0.21 -1.38c 0 -1.02 0 -1.11 0.06 -1.2c 0.03 -0.06 0.09 -0.12 0.12 -0.15c 0.06 -0.03 0.42 -0.21 0.84 -0.36l 0.78 -0.33l 0 -2.43c 0 -1.32 0 -2.43 -0.03 -2.43c 0 0 -0.27 0.12 -0.6 0.24c -0.69 0.27 -0.78 0.3 -0.96 0.15c -0.21 -0.15 -0.21 -0.18 -0.21 -1.38c 0 -1.02 0 -1.11 0.06 -1.2c 0.03 -0.06 0.09 -0.12 0.12 -0.15c 0.06 -0.03 0.42 -0.21 0.84 -0.36l 0.78 -0.33l 0 -2.52c 0 -2.28 0.03 -2.55 0.06 -2.64c 0.21 -0.36 0.72 -0.36 0.93 0c 0.03 0.09 0.06 0.33 0.06 2.43l 0.03 2.31l 1.26 -0.51l 1.26 -0.51l 0 -2.43c 0 -2.28 0 -2.43 0.06 -2.55c 0.06 -0.12 0.12 -0.18 0.27 -0.24zm -0.33 10.65l 0 -2.43l -1.29 0.51l -1.26 0.51l 0 2.46l 0 2.43l 0.09 -0.03c 0.06 -0.03 0.63 -0.27 1.29 -0.51l 1.17 -0.48l 0 -2.46z"></path><path data-name="^C" d="M 91.311 119.25200000000001c 0.36 -0.03 1.2 0 1.53 0.06c 1.17 0.24 1.89 0.84 2.16 1.83c 0.06 0.18 0.06 0.3 0.06 0.66c 0 0.45 0 0.63 -0.15 1.08c -0.66 2.04 -3.06 3.93 -5.52 4.38c -0.54 0.09 -1.44 0.09 -1.83 0.03c -1.23 -0.27 -1.98 -0.87 -2.25 -1.86c -0.06 -0.18 -0.06 -0.3 -0.06 -0.66c 0 -0.45 0 -0.63 0.15 -1.08c 0.24 -0.78 0.75 -1.53 1.44 -2.22c 1.2 -1.2 2.85 -2.01 4.47 -2.22z" class="abcjs-notehead"></path><path d="M 95.03 96.18L 95.03 122.01L 94.03 122.01L 94.03 96.18z" class="abcjs-stem" data-name="stem"></path><path d="M 83.22 122.95 L 97.03 122.95 L 97.03 123.65 L 83.22 123.65 z" stroke="none" fill="currentColor" data-name="ledger" class="abcjs-ledger"></path></g><g class="" fill="currentColor" stroke="none" data-name="note" selectable="false" data-index="1"><path data-name="flags.u8th" d="M 124.01100000000001 99.927l 0 -3.75l 0.21 0l 0.21 0l 0 0.18c 0 0.3 0.06 0.84 0.12 1.23c 0.24 1.53 0.9 3.12 2.13 5.16l 0.99 1.59c 0.87 1.44 1.38 2.34 1.77 3.09c 0.81 1.68 1.2 3.06 1.26 4.53c 0.03 1.53 -0.21 3.27 -0.75 5.01c -0.21 0.69 -0.51 1.5 -0.6 1.59c -0.09 0.12 -0.27 0.21 -0.42 0.21c -0.15 0 -0.42 -0.12 -0.51 -0.21c -0.15 -0.18 -0.18 -0.42 -0.09 -0.66c 0.15 -0.33 0.45 -1.2 0.57 -1.62c 0.42 -1.38 0.6 -2.58 0.6 -3.9c 0 -0.66 0 -0.81 -0.06 -1.11c -0.39 -2.07 -1.8 -4.26 -4.59 -7.14l -0.42 -0.45l -0.21 0l -0.21 0l 0 -3.75z"></path><path data-name="accidentals.flat" d="M 106.111 109.232c 0.33 -0.06 0.87 0 1.08 0.15c 0.06 0.03 0.06 0.36 -0.03 5.25c -0.06 2.85 -0.09 5.19 -0.09 5.19c 0 0.03 0.12 -0.03 0.24 -0.12c 0.63 -0.42 1.41 -0.66 2.19 -0.72c 0.81 -0.03 1.47 0.21 2.04 0.78c 0.57 0.54 0.87 1.26 0.93 2.04c 0.03 0.57 -0.09 1.08 -0.36 1.62c -0.42 0.81 -1.02 1.38 -2.82 2.61c -1.14 0.78 -1.44 1.02 -1.8 1.44c -0.18 0.18 -0.39 0.39 -0.45 0.42c -0.27 0.18 -0.57 0.15 -0.81 -0.06c -0.06 -0.09 -0.12 -0.18 -0.15 -0.27c -0.03 -0.06 -0.09 -3.27 -0.18 -8.34c -0.09 -4.53 -0.15 -8.58 -0.18 -9.03l 0 -0.78l 0.12 -0.06c 0.06 -0.03 0.18 -0.09 0.27 -0.12zm 3.18 11.01c -0.21 -0.12 -0.54 -0.15 -0.81 -0.06c -0.54 0.15 -0.99 0.63 -1.17 1.26c -0.06 0.3 -0.12 2.88 -0.06 3.87c 0.03 0.42 0.03 0.81 0.06 0.9l 0.03 0.12l 0.45 -0.39c 0.63 -0.54 1.26 -1.17 1.56 -1.59c 0.3 -0.42 0.6 -0.99 0.72 -1.41c 0.18 -0.69 0.09 -1.47 -0.18 -2.07c -0.15 -0.3 -0.33 -0.51 -0.6 -0.63z"></path><path data-name="_C" d="M 121.311 119.25200000000001c 0.36 -0.03 1.2 0 1.53 0.06c 1.17 0.24 1.89 0.84 2.16 1.83c 0.06 0.18 0.06 0.3 0.06 0.66c 0 0.45 0 0.63 -0.15 1.08c -0.66 2.04 -3.06 3.93 -5.52 4.38c -0.54 0.09 -1.44 0.09 -1.83 0.03c -1.23 -0.27 -1.98 -0.87 -2.25 -1.86c -0.06 -0.18 -0.06 -0.3 -0.06 -0.66c 0 -0.45 0 -0.63 0.15 -1.08c 0.24 -0.78 0.75 -1.53 1.44 -2.22c 1.2 -1.2 2.85 -2.01 4.47 -2.22z" class="abcjs-notehead"></path><path d="M 125.03 96.18L 125.03 122.01L 124.03 122.01L 124.03 96.18z" class="abcjs-stem" data-name="stem"></path><path d="M 113.22 122.95 L 127.03 122.95 L 127.03 123.65 L 113.22 123.65 z" stroke="none" fill="currentColor" data-name="ledger" class="abcjs-ledger"></path></g><g class="" fill="currentColor" stroke="none" data-name="note" selectable="false" data-index="2"><path data-name="flags.u8th" d="M 154.01100000000002 99.927l 0 -3.75l 0.21 0l 0.21 0l 0 0.18c 0 0.3 0.06 0.84 0.12 1.23c 0.24 1.53 0.9 3.12 2.13 5.16l 0.99 1.59c 0.87 1.44 1.38 2.34 1.77 3.09c 0.81 1.68 1.2 3.06 1.26 4.53c 0.03 1.53 -0.21 3.27 -0.75 5.01c -0.21 0.69 -0.51 1.5 -0.6 1.59c -0.09 0.12 -0.27 0.21 -0.42 0.21c -0.15 0 -0.42 -0.12 -0.51 -0.21c -0.15 -0.18 -0.18 -0.42 -0.09 -0.66c 0.15 -0.33 0.45 -1.2 0.57 -1.62c 0.42 -1.38 0.6 -2.58 0.6 -3.9c 0 -0.66 0 -0.81 -0.06 -1.11c -0.39 -2.07 -1.8 -4.26 -4.59 -7.14l -0.42 -0.45l -0.21 0l -0.21 0l 0 -3.75z"></path><path data-name="accidentals.nat" d="M 138.031 111.902c 0.24 -0.06 0.78 0 0.99 0.15c 0.03 0.03 0.03 0.48 0 2.61c -0.03 1.44 -0.03 2.61 -0.03 2.61c 0 0.03 0.75 -0.09 1.68 -0.24c 0.96 -0.18 1.71 -0.27 1.74 -0.27c 0.15 0.03 0.27 0.15 0.36 0.3l 0.06 0.12l 0.09 8.67c 0.09 6.96 0.12 8.67 0.09 8.67c -0.03 0.03 -0.12 0.06 -0.21 0.09c -0.24 0.09 -0.72 0.09 -0.96 0c -0.09 -0.03 -0.18 -0.06 -0.21 -0.09c -0.03 -0.03 -0.03 -0.48 0 -2.61c 0.03 -1.44 0.03 -2.61 0.03 -2.61c 0 -0.03 -0.75 0.09 -1.68 0.24c -0.96 0.18 -1.71 0.27 -1.74 0.27c -0.15 -0.03 -0.27 -0.15 -0.36 -0.3l -0.06 -0.15l -0.09 -7.53c -0.06 -4.14 -0.09 -8.04 -0.12 -8.67l 0 -1.11l 0.15 -0.06c 0.09 -0.03 0.21 -0.06 0.27 -0.09zm 3.75 8.4c 0 -0.33 0 -0.42 -0.03 -0.42c -0.12 0 -2.79 0.45 -2.79 0.48c -0.03 0 -0.09 6.3 -0.09 6.33c 0.03 0 2.79 -0.45 2.82 -0.48c 0 0 0.09 -4.53 0.09 -5.91z"></path><path data-name="=C" d="M 151.311 119.25200000000001c 0.36 -0.03 1.2 0 1.53 0.06c 1.17 0.24 1.89 0.84 2.16 1.83c 0.06 0.18 0.06 0.3 0.06 0.66c 0 0.45 0 0.63 -0.15 1.08c -0.66 2.04 -3.06 3.93 -5.52 4.38c -0.54 0.09 -1.44 0.09 -1.83 0.03c -1.23 -0.27 -1.98 -0.87 -2.25 -1.86c -0.06 -0.18 -0.06 -0.3 -0.06 -0.66c 0 -0.45 0 -0.63 0.15 -1.08c 0.24 -0.78 0.75 -1.53 1.44 -2.22c 1.2 -1.2 2.85 -2.01 4.47 -2.22z" class="abcjs-notehead"></path><path d="M 155.03 96.18L 155.03 122.01L 154.03 122.01L 154.03 96.18z" class="abcjs-stem" data-name="stem"></path><path d="M 143.22 122.95 L 157.03 122.95 L 157.03 123.65 L 143.22 123.65 z" stroke="none" fill="currentColor" data-name="ledger" class="abcjs-ledger"></path></g><g class="" fill="currentColor" stroke="none" data-name="note" selectable="false" data-index="3"><path data-name="flags.u8th" d="M 184.83800000000002 99.927l 0 -3.75l 0.21 0l 0.21 0l 0 0.18c 0 0.3 0.06 0.84 0.12 1.23c 0.24 1.53 0.9 3.12 2.13 5.16l 0.99 1.59c 0.87 1.44 1.38 2.34 1.77 3.09c 0.81 1.68 1.2 3.06 1.26 4.53c 0.03 1.53 -0.21 3.27 -0.75 5.01c -0.21 0.69 -0.51 1.5 -0.6 1.59c -0.09 0.12 -0.27 0.21 -0.42 0.21c -0.15 0 -0.42 -0.12 -0.51 -0.21c -0.15 -0.18 -0.18 -0.42 -0.09 -0.66c 0.15 -0.33 0.45 -1.2 0.57 -1.62c 0.42 -1.38 0.6 -2.58 0.6 -3.9c 0 -0.66 0 -0.81 -0.06 -1.11c -0.39 -2.07 -1.8 -4.26 -4.59 -7.14l -0.42 -0.45l -0.21 0l -0.21 0l 0 -3.75z"></path><path data-name="accidentals.dblsharp" d="M 165.918 119.34200000000001c 0.06 -0.03 0.12 -0.06 0.15 -0.06c 0.09 0 2.76 0.27 2.79 0.3c 0.12 0.03 0.15 0.12 0.15 0.51c 0.06 0.96 0.24 1.59 0.57 2.1c 0.06 0.09 0.15 0.21 0.18 0.24l 0.09 0.06l 0.09 -0.06c 0.03 -0.03 0.12 -0.15 0.18 -0.24c 0.33 -0.51 0.51 -1.14 0.57 -2.1c 0 -0.39 0.03 -0.45 0.12 -0.51c 0.03 0 0.66 -0.09 1.44 -0.15c 1.47 -0.15 1.5 -0.15 1.56 -0.03c 0.03 0.06 0 0.42 -0.09 1.44c -0.09 0.72 -0.15 1.35 -0.15 1.38c 0 0.03 -0.03 0.09 -0.06 0.12c -0.06 0.06 -0.12 0.09 -0.51 0.09c -1.08 0.06 -1.8 0.3 -2.28 0.75l -0.12 0.09l 0.09 0.09c 0.12 0.15 0.39 0.33 0.63 0.45c 0.42 0.18 0.96 0.27 1.68 0.33c 0.39 0 0.45 0.03 0.51 0.09c 0.03 0.03 0.06 0.09 0.06 0.12c 0 0.03 0.06 0.66 0.15 1.38c 0.09 1.02 0.12 1.38 0.09 1.44c -0.06 0.12 -0.09 0.12 -1.56 -0.03c -0.78 -0.06 -1.41 -0.15 -1.44 -0.15c -0.09 -0.06 -0.12 -0.12 -0.12 -0.54c -0.06 -0.93 -0.24 -1.56 -0.57 -2.07c -0.06 -0.09 -0.15 -0.21 -0.18 -0.24l -0.09 -0.06l -0.09 0.06c -0.03 0.03 -0.12 0.15 -0.18 0.24c -0.33 0.51 -0.51 1.14 -0.57 2.07c 0 0.42 -0.03 0.48 -0.12 0.54c -0.03 0 -0.66 0.09 -1.44 0.15c -1.47 0.15 -1.5 0.15 -1.56 0.03c -0.03 -0.06 0 -0.42 0.09 -1.44c 0.09 -0.72 0.15 -1.35 0.15 -1.38c 0 -0.03 0.03 -0.09 0.06 -0.12c 0.06 -0.06 0.12 -0.09 0.51 -0.09c 0.72 -0.06 1.26 -0.15 1.68 -0.33c 0.24 -0.12 0.51 -0.3 0.63 -0.45l 0.09 -0.09l -0.12 -0.09c -0.48 -0.45 -1.2 -0.69 -2.28 -0.75c -0.39 0 -0.45 -0.03 -0.51 -0.09c -0.03 -0.03 -0.06 -0.09 -0.06 -0.12c 0 -0.03 -0.06 -0.63 -0.12 -1.38c -0.09 -0.72 -0.15 -1.35 -0.15 -1.38z"></path><path data-name="^^C" d="M 182.138 119.25200000000001c 0.36 -0.03 1.2 0 1.53 0.06c 1.17 0.24 1.89 0.84 2.16 1.83c 0.06 0.18 0.06 0.3 0.06 0.66c 0 0.45 0 0.63 -0.15 1.08c -0.66 2.04 -3.06 3.93 -5.52 4.38c -0.54 0.09 -1.44 0.09 -1.83 0.03c -1.23 -0.27 -1.98 -0.87 -2.25 -1.86c -0.06 -0.18 -0.06 -0.3 -0.06 -0.66c 0 -0.45 0 -0.63 0.15 -1.08c 0.24 -0.78 0.75 -1.53 1.44 -2.22c 1.2 -1.2 2.85 -2.01 4.47 -2.22z" class="abcjs-notehead"></path><path d="M 185.86 96.18L 185.86 122.01L 184.86 122.01L 184.86 96.18z" class="abcjs-stem" data-name="stem"></path><path d="M 174.05 122.95 L 187.86 122.95 L 187.86 123.65 L 174.05 123.65 z" stroke="none" fill="currentColor" data-name="ledger" class="abcjs-ledger"></path></g><g class="" fill="currentColor" stroke="none" data-name="note" selectable="false" data-index="4"><path data-name="flags.u8th" d="M 221.89000000000001 99.927l 0 -3.75l 0.21 0l 0.21 0l 0 0.18c 0 0.3 0.06 0.84 0.12 1.23c 0.24 1.53 0.9 3.12 2.13 5.16l 0.99 1.59c 0.87 1.44 1.38 2.34 1.77 3.09c 0.81 1.68 1.2 3.06 1.26 4.53c 0.03 1.53 -0.21 3.27 -0.75 5.01c -0.21 0.69 -0.51 1.5 -0.6 1.59c -0.09 0.12 -0.27 0.21 -0.42 0.21c -0.15 0 -0.42 -0.12 -0.51 -0.21c -0.15 -0.18 -0.18 -0.42 -0.09 -0.66c 0.15 -0.33 0.45 -1.2 0.57 -1.62c 0.42 -1.38 0.6 -2.58 0.6 -3.9c 0 -0.66 0 -0.81 -0.06 -1.11c -0.39 -2.07 -1.8 -4.26 -4.59 -7.14l -0.42 -0.45l -0.21 0l -0.21 0l 0 -3.75z"></path><path data-name="accidentals.dblflat" d="M 198.64 109.232c 0.33 -0.06 0.87 0 1.08 0.15c 0.06 0.03 0.06 0.36 -0.03 5.25c -0.06 2.85 -0.09 5.19 -0.09 5.19c 0 0.03 0.12 -0.03 0.24 -0.12c 0.63 -0.42 1.41 -0.66 2.19 -0.72c 0.81 -0.03 1.47 0.21 2.04 0.78c 0.57 0.54 0.87 1.26 0.93 2.04c 0.03 0.57 -0.09 1.08 -0.36 1.62c -0.42 0.81 -1.02 1.38 -2.82 2.61c -1.14 0.78 -1.44 1.02 -1.8 1.44c -0.18 0.18 -0.39 0.39 -0.45 0.42c -0.27 0.18 -0.57 0.15 -0.81 -0.06c -0.06 -0.09 -0.12 -0.18 -0.15 -0.27c -0.03 -0.06 -0.09 -3.27 -0.18 -8.34c -0.09 -4.53 -0.15 -8.58 -0.18 -9.03l 0 -0.78l 0.12 -0.06c 0.06 -0.03 0.18 -0.09 0.27 -0.12zm 3.18 11.01c -0.21 -0.12 -0.54 -0.15 -0.81 -0.06c -0.54 0.15 -0.99 0.63 -1.17 1.26c -0.06 0.3 -0.12 2.88 -0.06 3.87c 0.03 0.42 0.03 0.81 0.06 0.9l 0.03 0.12l 0.45 -0.39c 0.63 -0.54 1.26 -1.17 1.56 -1.59c 0.3 -0.42 0.6 -0.99 0.72 -1.41c 0.18 -0.69 0.09 -1.47 -0.18 -2.07c -0.15 -0.3 -0.33 -0.51 -0.6 -0.63zm 3 -11c 0.33 -0.06 0.87 0 1.08 0.15c 0.06 0.03 0.06 0.36 -0.03 5.25c -0.06 2.85 -0.09 5.19 -0.09 5.19c 0 0.03 0.12 -0.03 0.24 -0.12c 0.63 -0.42 1.41 -0.66 2.19 -0.72c 0.81 -0.03 1.47 0.21 2.04 0.78c 0.57 0.54 0.87 1.26 0.93 2.04c 0.03 0.57 -0.09 1.08 -0.36 1.62c -0.42 0.81 -1.02 1.38 -2.82 2.61c -1.14 0.78 -1.44 1.02 -1.8 1.44c -0.18 0.18 -0.39 0.39 -0.45 0.42c -0.27 0.18 -0.57 0.15 -0.81 -0.06c -0.06 -0.09 -0.12 -0.18 -0.15 -0.27c -0.03 -0.06 -0.09 -3.27 -0.18 -8.34c -0.09 -4.53 -0.15 -8.58 -0.18 -9.03l 0 -0.78l 0.12 -0.06c 0.06 -0.03 0.18 -0.09 0.27 -0.12zm 3.18 11.01c -0.21 -0.12 -0.54 -0.15 -0.81 -0.06c -0.54 0.15 -0.99 0.63 -1.17 1.26c -0.06 0.3 -0.12 2.88 -0.06 3.87c 0.03 0.42 0.03 0.81 0.06 0.9l 0.03 0.12l 0.45 -0.39c 0.63 -0.54 1.26 -1.17 1.56 -1.59c 0.3 -0.42 0.6 -0.99 0.72 -1.41c 0.18 -0.69 0.09 -1.47 -0.18 -2.07c -0.15 -0.3 -0.33 -0.51 -0.6 -0.63z"></path><path data-name="__C" d="M 219.19 119.25200000000001c 0.36 -0.03 1.2 0 1.53 0.06c 1.17 0.24 1.89 0.84 2.16 1.83c 0.06 0.18 0.06 0.3 0.06 0.66c 0 0.45 0 0.63 -0.15 1.08c -0.66 2.04 -3.06 3.93 -5.52 4.38c -0.54 0.09 -1.44 0.09 -1.83 0.03c -1.23 -0.27 -1.98 -0.87 -2.25 -1.86c -0.06 -0.18 -0.06 -0.3 -0.06 -0.66c 0 -0.45 0 -0.63 0.15 -1.08c 0.24 -0.78 0.75 -1.53 1.44 -2.22c 1.2 -1.2 2.85 -2.01 4.47 -2.22z" class="abcjs-notehead"></path><path d="M 222.91 96.18L 222.91 122.01L 221.91 122.01L 221.91 96.18z" class="abcjs-stem" data-name="stem"></path><path d="M 211.1 122.95 L 224.91 122.95 L 224.91 123.65 L 211.1 123.65 z" stroke="none" fill="currentColor" data-name="ledger" class="abcjs-ledger"></path></g><g class="" fill="currentColor" stroke="none" data-name="bar"><path d="M 243.1 115.55L 243.1 84.55L 243.7 84.55L 243.7 115.55z" data-name="bar"></path><path d="M 246.1 115.55L 246.1 84.55L 246.7 84.55L 246.7 115.55z" data-name="bar"></path></g></g></svg>
