<svg xmlns:xlink="http://www.w3.org/1999/xlink" role="img" fill="currentColor" stroke="currentColor" width="770" height="105.29" viewBox="0 42 770.0 105.292" style=";" xmlns="http://www.w3.org/2000/svg"><style>.abcjs-dragging-in-progress text, .abcjs-dragging-in-progress tspan {-webkit-touch-callout: none; -webkit-user-select: none; -khtml-user-select: none; -moz-user-select: none; -ms-user-select: none; user-select: none;}</style><g><g><path d="M 15 85.44 L 494.85 85.44 L 494.85 86.14 L 15 86.14 z" stroke="none" fill="currentColor" class="abcjs-top-line"></path><path d="M 15 93.19 L 494.85 93.19 L 494.85 93.89 L 15 93.89 z" stroke="none" fill="currentColor"></path><path d="M 15 100.94 L 494.85 100.94 L 494.85 101.64 L 15 101.64 z" stroke="none" fill="currentColor"></path><path d="M 15 108.69 L 494.85 108.69 L 494.85 109.39 L 15 109.39 z" stroke="none" fill="currentColor"></path><path d="M 15 116.44 L 494.85 116.44 L 494.85 117.14 L 15 117.14 z" stroke="none" fill="currentColor"></path></g><g class="" fill="currentColor" stroke="none" data-name="staff-extra clef"><path data-name="clefs.G" d="M 29.689999999999998 71.632c 0.09 -0.09 0.24 -0.06 0.36 0c 0.12 0.09 0.57 0.6 0.96 1.11c 1.77 2.34 3.21 5.85 3.57 8.73c 0.21 1.56 0.03 3.27 -0.45 4.86c -0.69 2.31 -1.92 4.47 -4.23 7.44c -0.3 0.39 -0.57 0.72 -0.6 0.75c -0.03 0.06 0 0.15 0.18 0.78c 0.54 1.68 1.38 4.44 1.68 5.49l 0.09 0.42l 0.39 0c 1.47 0.09 2.76 0.51 3.96 1.29c 1.83 1.23 3.06 3.21 3.39 5.52c 0.09 0.45 0.12 1.29 0.06 1.74c -0.09 1.02 -0.33 1.83 -0.75 2.73c -0.84 1.71 -2.28 3.06 -4.02 3.72l -0.33 0.12l 0.03 1.26c 0 1.74 -0.06 3.63 -0.21 4.62c -0.45 3.06 -2.19 5.49 -4.47 6.21c -0.57 0.18 -0.9 0.21 -1.59 0.21c -0.69 0 -1.02 -0.03 -1.65 -0.21c -1.14 -0.27 -2.13 -0.84 -2.94 -1.65c -0.99 -0.99 -1.56 -2.16 -1.71 -3.54c -0.09 -0.81 0.06 -1.53 0.45 -2.13c 0.63 -0.99 1.83 -1.56 3 -1.53c 1.5 0.09 2.64 1.32 2.73 2.94c 0.06 1.47 -0.93 2.7 -2.37 2.97c -0.45 0.06 -0.84 0.03 -1.29 -0.09l -0.21 -0.09l 0.09 0.12c 0.39 0.54 0.78 0.93 1.32 1.26c 1.35 0.87 3.06 1.02 4.35 0.36c 1.44 -0.72 2.52 -2.28 2.97 -4.35c 0.15 -0.66 0.24 -1.5 0.3 -3.03c 0.03 -0.84 0.03 -2.94 0 -3c -0.03 0 -0.18 0 -0.36 0.03c -0.66 0.12 -0.99 0.12 -1.83 0.12c -1.05 0 -1.71 -0.06 -2.61 -0.3c -4.02 -0.99 -7.11 -4.35 -7.8 -8.46c -0.12 -0.66 -0.12 -0.99 -0.12 -1.83c 0 -0.84 0 -1.14 0.15 -1.92c 0.36 -2.28 1.41 -4.62 3.3 -7.29l 2.79 -3.6c 0.54 -0.66 0.96 -1.2 0.96 -1.23c 0 -0.03 -0.09 -0.33 -0.18 -0.69c -0.96 -3.21 -1.41 -5.28 -1.59 -7.68c -0.12 -1.38 -0.15 -3.09 -0.06 -3.96c 0.33 -2.67 1.38 -5.07 3.12 -7.08c 0.36 -0.42 0.99 -1.05 1.17 -1.14zm 2.01 4.71c -0.15 -0.3 -0.3 -0.54 -0.3 -0.54c -0.03 0 -0.18 0.09 -0.3 0.21c -2.4 1.74 -3.87 4.2 -4.26 7.11c -0.06 0.54 -0.06 1.41 -0.03 1.89c 0.09 1.29 0.48 3.12 1.08 5.22c 0.15 0.42 0.24 0.78 0.24 0.81c 0 0.03 0.84 -1.11 1.23 -1.68c 1.89 -2.73 2.88 -5.07 3.15 -7.53c 0.09 -0.57 0.12 -1.74 0.06 -2.37c -0.09 -1.23 -0.27 -1.92 -0.87 -3.12zm -2.94 20.7c -0.21 -0.72 -0.39 -1.32 -0.42 -1.32c 0 0 -1.2 1.47 -1.86 2.37c -2.79 3.63 -4.02 6.3 -4.35 9.3c -0.03 0.21 -0.03 0.69 -0.03 1.08c 0 0.69 0 0.75 0.06 1.11c 0.12 0.54 0.27 0.99 0.51 1.47c 0.69 1.38 1.83 2.55 3.42 3.42c 0.96 0.54 2.07 0.9 3.21 1.08c 0.78 0.12 2.04 0.12 2.94 -0.03c 0.51 -0.06 0.45 -0.03 0.42 -0.3c -0.24 -3.33 -0.72 -6.33 -1.62 -10.08c -0.09 -0.39 -0.18 -0.75 -0.18 -0.78c -0.03 -0.03 -0.42 0 -0.81 0.09c -0.9 0.18 -1.65 0.57 -2.22 1.14c -0.72 0.72 -1.08 1.65 -1.05 2.64c 0.06 0.96 0.48 1.83 1.23 2.58c 0.36 0.36 0.72 0.63 1.17 0.9c 0.33 0.18 0.36 0.21 0.42 0.33c 0.18 0.42 -0.18 0.9 -0.6 0.87c -0.18 -0.03 -0.84 -0.36 -1.26 -0.63c -0.78 -0.51 -1.38 -1.11 -1.86 -1.83c -1.77 -2.7 -0.99 -6.42 1.71 -8.19c 0.3 -0.21 0.81 -0.48 1.17 -0.63c 0.3 -0.09 1.02 -0.3 1.14 -0.3c 0.06 0 0.09 0 0.09 -0.03c 0.03 -0.03 -0.51 -1.92 -1.23 -4.26zm 3.78 7.41c -0.18 -0.03 -0.36 -0.06 -0.39 -0.06c -0.03 0 0 0.21 0.18 1.02c 0.75 3.18 1.26 6.3 1.5 9.09c 0.06 0.72 0 0.69 0.51 0.42c 0.78 -0.36 1.44 -0.96 1.98 -1.77c 1.08 -1.62 1.2 -3.69 0.3 -5.55c -0.81 -1.62 -2.31 -2.79 -4.08 -3.15z"></path></g><g class="" fill="currentColor" stroke="none" data-name="staff-extra time-signature"><path data-name="4" d="M 57.691 86.352c 0.27 -0.09 0.42 -0.12 0.54 -0.03c 0.09 0.06 0.15 0.21 0.15 0.3c -0.03 0.06 -1.92 2.31 -4.23 5.04c -2.31 2.73 -4.23 4.98 -4.26 5.01c -0.03 0.06 0.12 0.06 2.55 0.06l 2.61 0l 0 -2.37c 0 -2.19 0.03 -2.37 0.06 -2.46c 0.03 -0.06 0.21 -0.18 0.57 -0.42c 1.08 -0.72 1.38 -1.08 1.86 -2.16c 0.12 -0.3 0.24 -0.54 0.27 -0.57c 0.12 -0.12 0.39 -0.06 0.45 0.12c 0.06 0.09 0.06 0.57 0.06 3.96l 0 3.9l 1.08 0c 1.05 0 1.11 0 1.2 0.06c 0.24 0.15 0.24 0.54 0 0.69c -0.09 0.06 -0.15 0.06 -1.2 0.06l -1.08 0l 0 0.33c 0 0.57 0.09 1.11 0.3 1.53c 0.36 0.75 0.93 1.17 1.68 1.26c 0.3 0.03 0.39 0.09 0.39 0.3c 0 0.15 -0.03 0.18 -0.09 0.24c -0.06 0.06 -0.09 0.06 -0.48 0.06c -0.42 0 -0.69 -0.03 -2.1 -0.24c -0.9 -0.15 -1.77 -0.15 -2.67 0c -1.41 0.21 -1.68 0.24 -2.1 0.24c -0.39 0 -0.42 0 -0.48 -0.06c -0.06 -0.06 -0.06 -0.09 -0.06 -0.24c 0 -0.21 0.06 -0.27 0.36 -0.3c 0.75 -0.09 1.32 -0.51 1.68 -1.26c 0.21 -0.42 0.3 -0.96 0.3 -1.53l 0 -0.33l -2.7 0c -2.91 0 -2.85 0 -3.09 -0.15c -0.18 -0.12 -0.3 -0.39 -0.27 -0.54c 0.03 -0.06 0.18 -0.24 0.33 -0.45c 0.75 -0.9 1.59 -2.07 2.13 -3.03c 0.33 -0.54 0.84 -1.62 1.05 -2.16c 0.57 -1.41 0.84 -2.64 0.9 -4.05c 0.03 -0.63 0.06 -0.72 0.24 -0.81l 0.12 -0.06l 0.45 0.12c 0.66 0.18 1.02 0.24 1.47 0.27c 0.6 0.03 1.23 -0.09 2.01 -0.33z"></path><path data-name="4" d="M 57.691 101.852c 0.27 -0.09 0.42 -0.12 0.54 -0.03c 0.09 0.06 0.15 0.21 0.15 0.3c -0.03 0.06 -1.92 2.31 -4.23 5.04c -2.31 2.73 -4.23 4.98 -4.26 5.01c -0.03 0.06 0.12 0.06 2.55 0.06l 2.61 0l 0 -2.37c 0 -2.19 0.03 -2.37 0.06 -2.46c 0.03 -0.06 0.21 -0.18 0.57 -0.42c 1.08 -0.72 1.38 -1.08 1.86 -2.16c 0.12 -0.3 0.24 -0.54 0.27 -0.57c 0.12 -0.12 0.39 -0.06 0.45 0.12c 0.06 0.09 0.06 0.57 0.06 3.96l 0 3.9l 1.08 0c 1.05 0 1.11 0 1.2 0.06c 0.24 0.15 0.24 0.54 0 0.69c -0.09 0.06 -0.15 0.06 -1.2 0.06l -1.08 0l 0 0.33c 0 0.57 0.09 1.11 0.3 1.53c 0.36 0.75 0.93 1.17 1.68 1.26c 0.3 0.03 0.39 0.09 0.39 0.3c 0 0.15 -0.03 0.18 -0.09 0.24c -0.06 0.06 -0.09 0.06 -0.48 0.06c -0.42 0 -0.69 -0.03 -2.1 -0.24c -0.9 -0.15 -1.77 -0.15 -2.67 0c -1.41 0.21 -1.68 0.24 -2.1 0.24c -0.39 0 -0.42 0 -0.48 -0.06c -0.06 -0.06 -0.06 -0.09 -0.06 -0.24c 0 -0.21 0.06 -0.27 0.36 -0.3c 0.75 -0.09 1.32 -0.51 1.68 -1.26c 0.21 -0.42 0.3 -0.96 0.3 -1.53l 0 -0.33l -2.7 0c -2.91 0 -2.85 0 -3.09 -0.15c -0.18 -0.12 -0.3 -0.39 -0.27 -0.54c 0.03 -0.06 0.18 -0.24 0.33 -0.45c 0.75 -0.9 1.59 -2.07 2.13 -3.03c 0.33 -0.54 0.84 -1.62 1.05 -2.16c 0.57 -1.41 0.84 -2.64 0.9 -4.05c 0.03 -0.63 0.06 -0.72 0.24 -0.81l 0.12 -0.06l 0.45 0.12c 0.66 0.18 1.02 0.24 1.47 0.27c 0.6 0.03 1.23 -0.09 2.01 -0.33z"></path></g><g class="" fill="currentColor" stroke="none" data-name="note" selectable="false" data-index="0"><path data-name="flags.u8th" d="M 79.63600000000001 101.167l 0 -3.75l 0.21 0l 0.21 0l 0 0.18c 0 0.3 0.06 0.84 0.12 1.23c 0.24 1.53 0.9 3.12 2.13 5.16l 0.99 1.59c 0.87 1.44 1.38 2.34 1.77 3.09c 0.81 1.68 1.2 3.06 1.26 4.53c 0.03 1.53 -0.21 3.27 -0.75 5.01c -0.21 0.69 -0.51 1.5 -0.6 1.59c -0.09 0.12 -0.27 0.21 -0.42 0.21c -0.15 0 -0.42 -0.12 -0.51 -0.21c -0.15 -0.18 -0.18 -0.42 -0.09 -0.66c 0.15 -0.33 0.45 -1.2 0.57 -1.62c 0.42 -1.38 0.6 -2.58 0.6 -3.9c 0 -0.66 0 -0.81 -0.06 -1.11c -0.39 -2.07 -1.8 -4.26 -4.59 -7.14l -0.42 -0.45l -0.21 0l -0.21 0l 0 -3.75z"></path><path data-name="C" d="M 76.936 120.492c 0.36 -0.03 1.2 0 1.53 0.06c 1.17 0.24 1.89 0.84 2.16 1.83c 0.06 0.18 0.06 0.3 0.06 0.66c 0 0.45 0 0.63 -0.15 1.08c -0.66 2.04 -3.06 3.93 -5.52 4.38c -0.54 0.09 -1.44 0.09 -1.83 0.03c -1.23 -0.27 -1.98 -0.87 -2.25 -1.86c -0.06 -0.18 -0.06 -0.3 -0.06 -0.66c 0 -0.45 0 -0.63 0.15 -1.08c 0.24 -0.78 0.75 -1.53 1.44 -2.22c 1.2 -1.2 2.85 -2.01 4.47 -2.22z" class="abcjs-notehead"></path><path d="M 80.66 97.42L 80.66 123.25L 79.66 123.25L 79.66 97.42z" class="abcjs-stem" data-name="stem"></path><path d="M 68.85 124.19 L 82.66 124.19 L 82.66 124.89 L 68.85 124.89 z" stroke="none" fill="currentColor" data-name="ledger" class="abcjs-ledger"></path></g><g class="" fill="currentColor" stroke="none" data-name="note" selectable="false" data-index="1"><path data-name="flags.u8th" d="M 109.63600000000001 97.292l 0 -3.75l 0.21 0l 0.21 0l 0 0.18c 0 0.3 0.06 0.84 0.12 1.23c 0.24 1.53 0.9 3.12 2.13 5.16l 0.99 1.59c 0.87 1.44 1.38 2.34 1.77 3.09c 0.81 1.68 1.2 3.06 1.26 4.53c 0.03 1.53 -0.21 3.27 -0.75 5.01c -0.21 0.69 -0.51 1.5 -0.6 1.59c -0.09 0.12 -0.27 0.21 -0.42 0.21c -0.15 0 -0.42 -0.12 -0.51 -0.21c -0.15 -0.18 -0.18 -0.42 -0.09 -0.66c 0.15 -0.33 0.45 -1.2 0.57 -1.62c 0.42 -1.38 0.6 -2.58 0.6 -3.9c 0 -0.66 0 -0.81 -0.06 -1.11c -0.39 -2.07 -1.8 -4.26 -4.59 -7.14l -0.42 -0.45l -0.21 0l -0.21 0l 0 -3.75z"></path><path data-name="D" d="M 106.936 116.617c 0.36 -0.03 1.2 0 1.53 0.06c 1.17 0.24 1.89 0.84 2.16 1.83c 0.06 0.18 0.06 0.3 0.06 0.66c 0 0.45 0 0.63 -0.15 1.08c -0.66 2.04 -3.06 3.93 -5.52 4.38c -0.54 0.09 -1.44 0.09 -1.83 0.03c -1.23 -0.27 -1.98 -0.87 -2.25 -1.86c -0.06 -0.18 -0.06 -0.3 -0.06 -0.66c 0 -0.45 0 -0.63 0.15 -1.08c 0.24 -0.78 0.75 -1.53 1.44 -2.22c 1.2 -1.2 2.85 -2.01 4.47 -2.22z" class="abcjs-notehead"></path><path d="M 110.66 93.54L 110.66 119.38L 109.66 119.38L 109.66 93.54z" class="abcjs-stem" data-name="stem"></path></g><g class="" fill="currentColor" stroke="none" data-name="note" selectable="false" data-index="2"><path data-name="flags.u8th" d="M 139.63600000000002 93.417l 0 -3.75l 0.21 0l 0.21 0l 0 0.18c 0 0.3 0.06 0.84 0.12 1.23c 0.24 1.53 0.9 3.12 2.13 5.16l 0.99 1.59c 0.87 1.44 1.38 2.34 1.77 3.09c 0.81 1.68 1.2 3.06 1.26 4.53c 0.03 1.53 -0.21 3.27 -0.75 5.01c -0.21 0.69 -0.51 1.5 -0.6 1.59c -0.09 0.12 -0.27 0.21 -0.42 0.21c -0.15 0 -0.42 -0.12 -0.51 -0.21c -0.15 -0.18 -0.18 -0.42 -0.09 -0.66c 0.15 -0.33 0.45 -1.2 0.57 -1.62c 0.42 -1.38 0.6 -2.58 0.6 -3.9c 0 -0.66 0 -0.81 -0.06 -1.11c -0.39 -2.07 -1.8 -4.26 -4.59 -7.14l -0.42 -0.45l -0.21 0l -0.21 0l 0 -3.75z"></path><path data-name="E" d="M 136.936 112.742c 0.36 -0.03 1.2 0 1.53 0.06c 1.17 0.24 1.89 0.84 2.16 1.83c 0.06 0.18 0.06 0.3 0.06 0.66c 0 0.45 0 0.63 -0.15 1.08c -0.66 2.04 -3.06 3.93 -5.52 4.38c -0.54 0.09 -1.44 0.09 -1.83 0.03c -1.23 -0.27 -1.98 -0.87 -2.25 -1.86c -0.06 -0.18 -0.06 -0.3 -0.06 -0.66c 0 -0.45 0 -0.63 0.15 -1.08c 0.24 -0.78 0.75 -1.53 1.44 -2.22c 1.2 -1.2 2.85 -2.01 4.47 -2.22z" class="abcjs-notehead"></path><path d="M 140.66 89.67L 140.66 115.5L 139.66 115.5L 139.66 89.67z" class="abcjs-stem" data-name="stem"></path></g><g class="" fill="currentColor" stroke="none" data-name="note" selectable="false" data-index="3"><path data-name="flags.u8th" d="M 169.63600000000002 89.542l 0 -3.75l 0.21 0l 0.21 0l 0 0.18c 0 0.3 0.06 0.84 0.12 1.23c 0.24 1.53 0.9 3.12 2.13 5.16l 0.99 1.59c 0.87 1.44 1.38 2.34 1.77 3.09c 0.81 1.68 1.2 3.06 1.26 4.53c 0.03 1.53 -0.21 3.27 -0.75 5.01c -0.21 0.69 -0.51 1.5 -0.6 1.59c -0.09 0.12 -0.27 0.21 -0.42 0.21c -0.15 0 -0.42 -0.12 -0.51 -0.21c -0.15 -0.18 -0.18 -0.42 -0.09 -0.66c 0.15 -0.33 0.45 -1.2 0.57 -1.62c 0.42 -1.38 0.6 -2.58 0.6 -3.9c 0 -0.66 0 -0.81 -0.06 -1.11c -0.39 -2.07 -1.8 -4.26 -4.59 -7.14l -0.42 -0.45l -0.21 0l -0.21 0l 0 -3.75z"></path><path data-name="F" d="M 166.936 108.867c 0.36 -0.03 1.2 0 1.53 0.06c 1.17 0.24 1.89 0.84 2.16 1.83c 0.06 0.18 0.06 0.3 0.06 0.66c 0 0.45 0 0.63 -0.15 1.08c -0.66 2.04 -3.06 3.93 -5.52 4.38c -0.54 0.09 -1.44 0.09 -1.83 0.03c -1.23 -0.27 -1.98 -0.87 -2.25 -1.86c -0.06 -0.18 -0.06 -0.3 -0.06 -0.66c 0 -0.45 0 -0.63 0.15 -1.08c 0.24 -0.78 0.75 -1.53 1.44 -2.22c 1.2 -1.2 2.85 -2.01 4.47 -2.22z" class="abcjs-notehead"></path><path d="M 170.66 85.79L 170.66 111.63L 169.66 111.63L 169.66 85.79z" class="abcjs-stem" data-name="stem"></path></g><g class="" fill="currentColor" stroke="none" data-name="note" selectable="false" data-index="4"><path data-name="flags.u8th" d="M 199.63600000000002 85.667l 0 -3.75l 0.21 0l 0.21 0l 0 0.18c 0 0.3 0.06 0.84 0.12 1.23c 0.24 1.53 0.9 3.12 2.13 5.16l 0.99 1.59c 0.87 1.44 1.38 2.34 1.77 3.09c 0.81 1.68 1.2 3.06 1.26 4.53c 0.03 1.53 -0.21 3.27 -0.75 5.01c -0.21 0.69 -0.51 1.5 -0.6 1.59c -0.09 0.12 -0.27 0.21 -0.42 0.21c -0.15 0 -0.42 -0.12 -0.51 -0.21c -0.15 -0.18 -0.18 -0.42 -0.09 -0.66c 0.15 -0.33 0.45 -1.2 0.57 -1.62c 0.42 -1.38 0.6 -2.58 0.6 -3.9c 0 -0.66 0 -0.81 -0.06 -1.11c -0.39 -2.07 -1.8 -4.26 -4.59 -7.14l -0.42 -0.45l -0.21 0l -0.21 0l 0 -3.75z"></path><path data-name="G" d="M 196.936 104.992c 0.36 -0.03 1.2 0 1.53 0.06c 1.17 0.24 1.89 0.84 2.16 1.83c 0.06 0.18 0.06 0.3 0.06 0.66c 0 0.45 0 0.63 -0.15 1.08c -0.66 2.04 -3.06 3.93 -5.52 4.38c -0.54 0.09 -1.44 0.09 -1.83 0.03c -1.23 -0.27 -1.98 -0.87 -2.25 -1.86c -0.06 -0.18 -0.06 -0.3 -0.06 -0.66c 0 -0.45 0 -0.63 0.15 -1.08c 0.24 -0.78 0.75 -1.53 1.44 -2.22c 1.2 -1.2 2.85 -2.01 4.47 -2.22z" class="abcjs-notehead"></path><path d="M 200.66 81.92L 200.66 107.75L 199.66 107.75L 199.66 81.92z" class="abcjs-stem" data-name="stem"></path></g><g class="" fill="currentColor" stroke="none" data-name="note" selectable="false" data-index="5"><path data-name="flags.u8th" d="M 229.63600000000002 81.792l 0 -3.75l 0.21 0l 0.21 0l 0 0.18c 0 0.3 0.06 0.84 0.12 1.23c 0.24 1.53 0.9 3.12 2.13 5.16l 0.99 1.59c 0.87 1.44 1.38 2.34 1.77 3.09c 0.81 1.68 1.2 3.06 1.26 4.53c 0.03 1.53 -0.21 3.27 -0.75 5.01c -0.21 0.69 -0.51 1.5 -0.6 1.59c -0.09 0.12 -0.27 0.21 -0.42 0.21c -0.15 0 -0.42 -0.12 -0.51 -0.21c -0.15 -0.18 -0.18 -0.42 -0.09 -0.66c 0.15 -0.33 0.45 -1.2 0.57 -1.62c 0.42 -1.38 0.6 -2.58 0.6 -3.9c 0 -0.66 0 -0.81 -0.06 -1.11c -0.39 -2.07 -1.8 -4.26 -4.59 -7.14l -0.42 -0.45l -0.21 0l -0.21 0l 0 -3.75z"></path><path data-name="A" d="M 226.936 101.117c 0.36 -0.03 1.2 0 1.53 0.06c 1.17 0.24 1.89 0.84 2.16 1.83c 0.06 0.18 0.06 0.3 0.06 0.66c 0 0.45 0 0.63 -0.15 1.08c -0.66 2.04 -3.06 3.93 -5.52 4.38c -0.54 0.09 -1.44 0.09 -1.83 0.03c -1.23 -0.27 -1.98 -0.87 -2.25 -1.86c -0.06 -0.18 -0.06 -0.3 -0.06 -0.66c 0 -0.45 0 -0.63 0.15 -1.08c 0.24 -0.78 0.75 -1.53 1.44 -2.22c 1.2 -1.2 2.85 -2.01 4.47 -2.22z" class="abcjs-notehead"></path><path d="M 230.66 78.04L 230.66 103.88L 229.66 103.88L 229.66 78.04z" class="abcjs-stem" data-name="stem"></path></g><g class="" fill="currentColor" stroke="none" data-name="note" selectable="false" data-index="6"><path data-name="flags.d8th" d="M 256.516 106.787c 0.24 -0.12 0.54 -0.06 0.69 0.15c 0.06 0.06 0.21 0.36 0.39 0.66c 0.84 1.77 1.26 3.36 1.32 5.1c 0.03 1.29 -0.21 2.37 -0.81 3.63c -0.6 1.23 -1.26 2.13 -3.21 4.38c -1.35 1.53 -1.86 2.19 -2.4 2.97c -0.63 0.93 -1.11 1.92 -1.38 2.79c -0.15 0.54 -0.27 1.35 -0.27 1.8l 0 0.15l -0.21 0l -0.21 0l 0 -3.75l 0 -3.75l 0.21 0l 0.21 0l 0.48 -0.3c 1.83 -1.11 3.12 -2.1 4.17 -3.12c 0.78 -0.81 1.32 -1.53 1.71 -2.31c 0.45 -0.93 0.6 -1.74 0.51 -2.88c -0.12 -1.56 -0.63 -3.18 -1.47 -4.68c -0.12 -0.21 -0.15 -0.33 -0.06 -0.51c 0.06 -0.15 0.15 -0.24 0.33 -0.33z"></path><path data-name="B" d="M 256.936 97.242c 0.36 -0.03 1.2 0 1.53 0.06c 1.17 0.24 1.89 0.84 2.16 1.83c 0.06 0.18 0.06 0.3 0.06 0.66c 0 0.45 0 0.63 -0.15 1.08c -0.66 2.04 -3.06 3.93 -5.52 4.38c -0.54 0.09 -1.44 0.09 -1.83 0.03c -1.23 -0.27 -1.98 -0.87 -2.25 -1.86c -0.06 -0.18 -0.06 -0.3 -0.06 -0.66c 0 -0.45 0 -0.63 0.15 -1.08c 0.24 -0.78 0.75 -1.53 1.44 -2.22c 1.2 -1.2 2.85 -2.01 4.47 -2.22z" class="abcjs-notehead"></path><path d="M 250.85 128.42L 250.85 101.29L 251.85 101.29L 251.85 128.42z" class="abcjs-stem" data-name="stem"></path></g><g class="" fill="currentColor" stroke="none" data-name="note" selectable="false" data-index="7"><path data-name="flags.d8th" d="M 286.516 102.912c 0.24 -0.12 0.54 -0.06 0.69 0.15c 0.06 0.06 0.21 0.36 0.39 0.66c 0.84 1.77 1.26 3.36 1.32 5.1c 0.03 1.29 -0.21 2.37 -0.81 3.63c -0.6 1.23 -1.26 2.13 -3.21 4.38c -1.35 1.53 -1.86 2.19 -2.4 2.97c -0.63 0.93 -1.11 1.92 -1.38 2.79c -0.15 0.54 -0.27 1.35 -0.27 1.8l 0 0.15l -0.21 0l -0.21 0l 0 -3.75l 0 -3.75l 0.21 0l 0.21 0l 0.48 -0.3c 1.83 -1.11 3.12 -2.1 4.17 -3.12c 0.78 -0.81 1.32 -1.53 1.71 -2.31c 0.45 -0.93 0.6 -1.74 0.51 -2.88c -0.12 -1.56 -0.63 -3.18 -1.47 -4.68c -0.12 -0.21 -0.15 -0.33 -0.06 -0.51c 0.06 -0.15 0.15 -0.24 0.33 -0.33z"></path><path data-name="c" d="M 286.936 93.367c 0.36 -0.03 1.2 0 1.53 0.06c 1.17 0.24 1.89 0.84 2.16 1.83c 0.06 0.18 0.06 0.3 0.06 0.66c 0 0.45 0 0.63 -0.15 1.08c -0.66 2.04 -3.06 3.93 -5.52 4.38c -0.54 0.09 -1.44 0.09 -1.83 0.03c -1.23 -0.27 -1.98 -0.87 -2.25 -1.86c -0.06 -0.18 -0.06 -0.3 -0.06 -0.66c 0 -0.45 0 -0.63 0.15 -1.08c 0.24 -0.78 0.75 -1.53 1.44 -2.22c 1.2 -1.2 2.85 -2.01 4.47 -2.22z" class="abcjs-notehead"></path><path d="M 280.85 124.54L 280.85 98.71L 281.85 98.71L 281.85 124.54z" class="abcjs-stem" data-name="stem"></path></g><g class="" fill="currentColor" stroke="none" data-name="note" selectable="false" data-index="8"><path data-name="flags.d8th" d="M 316.516 99.037c 0.24 -0.12 0.54 -0.06 0.69 0.15c 0.06 0.06 0.21 0.36 0.39 0.66c 0.84 1.77 1.26 3.36 1.32 5.1c 0.03 1.29 -0.21 2.37 -0.81 3.63c -0.6 1.23 -1.26 2.13 -3.21 4.38c -1.35 1.53 -1.86 2.19 -2.4 2.97c -0.63 0.93 -1.11 1.92 -1.38 2.79c -0.15 0.54 -0.27 1.35 -0.27 1.8l 0 0.15l -0.21 0l -0.21 0l 0 -3.75l 0 -3.75l 0.21 0l 0.21 0l 0.48 -0.3c 1.83 -1.11 3.12 -2.1 4.17 -3.12c 0.78 -0.81 1.32 -1.53 1.71 -2.31c 0.45 -0.93 0.6 -1.74 0.51 -2.88c -0.12 -1.56 -0.63 -3.18 -1.47 -4.68c -0.12 -0.21 -0.15 -0.33 -0.06 -0.51c 0.06 -0.15 0.15 -0.24 0.33 -0.33z"></path><path data-name="d" d="M 316.936 89.492c 0.36 -0.03 1.2 0 1.53 0.06c 1.17 0.24 1.89 0.84 2.16 1.83c 0.06 0.18 0.06 0.3 0.06 0.66c 0 0.45 0 0.63 -0.15 1.08c -0.66 2.04 -3.06 3.93 -5.52 4.38c -0.54 0.09 -1.44 0.09 -1.83 0.03c -1.23 -0.27 -1.98 -0.87 -2.25 -1.86c -0.06 -0.18 -0.06 -0.3 -0.06 -0.66c 0 -0.45 0 -0.63 0.15 -1.08c 0.24 -0.78 0.75 -1.53 1.44 -2.22c 1.2 -1.2 2.85 -2.01 4.47 -2.22z" class="abcjs-notehead"></path><path d="M 310.85 120.67L 310.85 94.83L 311.85 94.83L 311.85 120.67z" class="abcjs-stem" data-name="stem"></path></g><g class="" fill="currentColor" stroke="none" data-name="note" selectable="false" data-index="9"><path data-name="flags.d8th" d="M 346.516 95.162c 0.24 -0.12 0.54 -0.06 0.69 0.15c 0.06 0.06 0.21 0.36 0.39 0.66c 0.84 1.77 1.26 3.36 1.32 5.1c 0.03 1.29 -0.21 2.37 -0.81 3.63c -0.6 1.23 -1.26 2.13 -3.21 4.38c -1.35 1.53 -1.86 2.19 -2.4 2.97c -0.63 0.93 -1.11 1.92 -1.38 2.79c -0.15 0.54 -0.27 1.35 -0.27 1.8l 0 0.15l -0.21 0l -0.21 0l 0 -3.75l 0 -3.75l 0.21 0l 0.21 0l 0.48 -0.3c 1.83 -1.11 3.12 -2.1 4.17 -3.12c 0.78 -0.81 1.32 -1.53 1.71 -2.31c 0.45 -0.93 0.6 -1.74 0.51 -2.88c -0.12 -1.56 -0.63 -3.18 -1.47 -4.68c -0.12 -0.21 -0.15 -0.33 -0.06 -0.51c 0.06 -0.15 0.15 -0.24 0.33 -0.33z"></path><path data-name="e" d="M 346.936 85.617c 0.36 -0.03 1.2 0 1.53 0.06c 1.17 0.24 1.89 0.84 2.16 1.83c 0.06 0.18 0.06 0.3 0.06 0.66c 0 0.45 0 0.63 -0.15 1.08c -0.66 2.04 -3.06 3.93 -5.52 4.38c -0.54 0.09 -1.44 0.09 -1.83 0.03c -1.23 -0.27 -1.98 -0.87 -2.25 -1.86c -0.06 -0.18 -0.06 -0.3 -0.06 -0.66c 0 -0.45 0 -0.63 0.15 -1.08c 0.24 -0.78 0.75 -1.53 1.44 -2.22c 1.2 -1.2 2.85 -2.01 4.47 -2.22z" class="abcjs-notehead"></path><path d="M 340.85 116.79L 340.85 90.96L 341.85 90.96L 341.85 116.79z" class="abcjs-stem" data-name="stem"></path></g><g class="" fill="currentColor" stroke="none" data-name="note" selectable="false" data-index="10"><path data-name="flags.d8th" d="M 376.516 91.287c 0.24 -0.12 0.54 -0.06 0.69 0.15c 0.06 0.06 0.21 0.36 0.39 0.66c 0.84 1.77 1.26 3.36 1.32 5.1c 0.03 1.29 -0.21 2.37 -0.81 3.63c -0.6 1.23 -1.26 2.13 -3.21 4.38c -1.35 1.53 -1.86 2.19 -2.4 2.97c -0.63 0.93 -1.11 1.92 -1.38 2.79c -0.15 0.54 -0.27 1.35 -0.27 1.8l 0 0.15l -0.21 0l -0.21 0l 0 -3.75l 0 -3.75l 0.21 0l 0.21 0l 0.48 -0.3c 1.83 -1.11 3.12 -2.1 4.17 -3.12c 0.78 -0.81 1.32 -1.53 1.71 -2.31c 0.45 -0.93 0.6 -1.74 0.51 -2.88c -0.12 -1.56 -0.63 -3.18 -1.47 -4.68c -0.12 -0.21 -0.15 -0.33 -0.06 -0.51c 0.06 -0.15 0.15 -0.24 0.33 -0.33z"></path><path data-name="f" d="M 376.936 81.742c 0.36 -0.03 1.2 0 1.53 0.06c 1.17 0.24 1.89 0.84 2.16 1.83c 0.06 0.18 0.06 0.3 0.06 0.66c 0 0.45 0 0.63 -0.15 1.08c -0.66 2.04 -3.06 3.93 -5.52 4.38c -0.54 0.09 -1.44 0.09 -1.83 0.03c -1.23 -0.27 -1.98 -0.87 -2.25 -1.86c -0.06 -0.18 -0.06 -0.3 -0.06 -0.66c 0 -0.45 0 -0.63 0.15 -1.08c 0.24 -0.78 0.75 -1.53 1.44 -2.22c 1.2 -1.2 2.85 -2.01 4.47 -2.22z" class="abcjs-notehead"></path><path d="M 370.85 112.92L 370.85 87.08L 371.85 87.08L 371.85 112.92z" class="abcjs-stem" data-name="stem"></path></g><g class="" fill="currentColor" stroke="none" data-name="note" selectable="false" data-index="11"><path data-name="flags.d8th" d="M 406.516 87.412c 0.24 -0.12 0.54 -0.06 0.69 0.15c 0.06 0.06 0.21 0.36 0.39 0.66c 0.84 1.77 1.26 3.36 1.32 5.1c 0.03 1.29 -0.21 2.37 -0.81 3.63c -0.6 1.23 -1.26 2.13 -3.21 4.38c -1.35 1.53 -1.86 2.19 -2.4 2.97c -0.63 0.93 -1.11 1.92 -1.38 2.79c -0.15 0.54 -0.27 1.35 -0.27 1.8l 0 0.15l -0.21 0l -0.21 0l 0 -3.75l 0 -3.75l 0.21 0l 0.21 0l 0.48 -0.3c 1.83 -1.11 3.12 -2.1 4.17 -3.12c 0.78 -0.81 1.32 -1.53 1.71 -2.31c 0.45 -0.93 0.6 -1.74 0.51 -2.88c -0.12 -1.56 -0.63 -3.18 -1.47 -4.68c -0.12 -0.21 -0.15 -0.33 -0.06 -0.51c 0.06 -0.15 0.15 -0.24 0.33 -0.33z"></path><path data-name="g" d="M 406.936 77.867c 0.36 -0.03 1.2 0 1.53 0.06c 1.17 0.24 1.89 0.84 2.16 1.83c 0.06 0.18 0.06 0.3 0.06 0.66c 0 0.45 0 0.63 -0.15 1.08c -0.66 2.04 -3.06 3.93 -5.52 4.38c -0.54 0.09 -1.44 0.09 -1.83 0.03c -1.23 -0.27 -1.98 -0.87 -2.25 -1.86c -0.06 -0.18 -0.06 -0.3 -0.06 -0.66c 0 -0.45 0 -0.63 0.15 -1.08c 0.24 -0.78 0.75 -1.53 1.44 -2.22c 1.2 -1.2 2.85 -2.01 4.47 -2.22z" class="abcjs-notehead"></path><path d="M 400.85 109.04L 400.85 83.21L 401.85 83.21L 401.85 109.04z" class="abcjs-stem" data-name="stem"></path></g><g class="" fill="currentColor" stroke="none" data-name="note" selectable="false" data-index="12"><path data-name="flags.d8th" d="M 436.516 83.537c 0.24 -0.12 0.54 -0.06 0.69 0.15c 0.06 0.06 0.21 0.36 0.39 0.66c 0.84 1.77 1.26 3.36 1.32 5.1c 0.03 1.29 -0.21 2.37 -0.81 3.63c -0.6 1.23 -1.26 2.13 -3.21 4.38c -1.35 1.53 -1.86 2.19 -2.4 2.97c -0.63 0.93 -1.11 1.92 -1.38 2.79c -0.15 0.54 -0.27 1.35 -0.27 1.8l 0 0.15l -0.21 0l -0.21 0l 0 -3.75l 0 -3.75l 0.21 0l 0.21 0l 0.48 -0.3c 1.83 -1.11 3.12 -2.1 4.17 -3.12c 0.78 -0.81 1.32 -1.53 1.71 -2.31c 0.45 -0.93 0.6 -1.74 0.51 -2.88c -0.12 -1.56 -0.63 -3.18 -1.47 -4.68c -0.12 -0.21 -0.15 -0.33 -0.06 -0.51c 0.06 -0.15 0.15 -0.24 0.33 -0.33z"></path><path data-name="a" d="M 436.936 73.992c 0.36 -0.03 1.2 0 1.53 0.06c 1.17 0.24 1.89 0.84 2.16 1.83c 0.06 0.18 0.06 0.3 0.06 0.66c 0 0.45 0 0.63 -0.15 1.08c -0.66 2.04 -3.06 3.93 -5.52 4.38c -0.54 0.09 -1.44 0.09 -1.83 0.03c -1.23 -0.27 -1.98 -0.87 -2.25 -1.86c -0.06 -0.18 -0.06 -0.3 -0.06 -0.66c 0 -0.45 0 -0.63 0.15 -1.08c 0.24 -0.78 0.75 -1.53 1.44 -2.22c 1.2 -1.2 2.85 -2.01 4.47 -2.22z" class="abcjs-notehead"></path><path d="M 430.85 105.17L 430.85 79.33L 431.85 79.33L 431.85 105.17z" class="abcjs-stem" data-name="stem"></path><path d="M 428.85 77.69 L 442.66 77.69 L 442.66 78.39 L 428.85 78.39 z" stroke="none" fill="currentColor" data-name="ledger" class="abcjs-ledger"></path></g><g class="" fill="currentColor" stroke="none" data-name="note" selectable="false" data-index="13"><path data-name="flags.d8th" d="M 466.516 79.662c 0.24 -0.12 0.54 -0.06 0.69 0.15c 0.06 0.06 0.21 0.36 0.39 0.66c 0.84 1.77 1.26 3.36 1.32 5.1c 0.03 1.29 -0.21 2.37 -0.81 3.63c -0.6 1.23 -1.26 2.13 -3.21 4.38c -1.35 1.53 -1.86 2.19 -2.4 2.97c -0.63 0.93 -1.11 1.92 -1.38 2.79c -0.15 0.54 -0.27 1.35 -0.27 1.8l 0 0.15l -0.21 0l -0.21 0l 0 -3.75l 0 -3.75l 0.21 0l 0.21 0l 0.48 -0.3c 1.83 -1.11 3.12 -2.1 4.17 -3.12c 0.78 -0.81 1.32 -1.53 1.71 -2.31c 0.45 -0.93 0.6 -1.74 0.51 -2.88c -0.12 -1.56 -0.63 -3.18 -1.47 -4.68c -0.12 -0.21 -0.15 -0.33 -0.06 -0.51c 0.06 -0.15 0.15 -0.24 0.33 -0.33z"></path><path data-name="b" d="M 466.936 70.117c 0.36 -0.03 1.2 0 1.53 0.06c 1.17 0.24 1.89 0.84 2.16 1.83c 0.06 0.18 0.06 0.3 0.06 0.66c 0 0.45 0 0.63 -0.15 1.08c -0.66 2.04 -3.06 3.93 -5.52 4.38c -0.54 0.09 -1.44 0.09 -1.83 0.03c -1.23 -0.27 -1.98 -0.87 -2.25 -1.86c -0.06 -0.18 -0.06 -0.3 -0.06 -0.66c 0 -0.45 0 -0.63 0.15 -1.08c 0.24 -0.78 0.75 -1.53 1.44 -2.22c 1.2 -1.2 2.85 -2.01 4.47 -2.22z" class="abcjs-notehead"></path><path d="M 460.85 101.29L 460.85 75.46L 461.85 75.46L 461.85 101.29z" class="abcjs-stem" data-name="stem"></path><path d="M 458.85 77.69 L 472.66 77.69 L 472.66 78.39 L 458.85 78.39 z" stroke="none" fill="currentColor" data-name="ledger" class="abcjs-ledger"></path></g><g class="" fill="currentColor" stroke="none" data-name="bar"><path d="M 490.85 116.79L 490.85 85.79L 491.45 85.79L 491.45 116.79z" data-name="bar"></path><path d="M 493.85 116.79L 493.85 85.79L 494.45 85.79L 494.45 116.79z" data-name="bar"></path></g></g></svg>
